<?xml version="1.0" encoding="utf-8"?>
<!-- Generator: Adobe Illustrator 18.1.1, SVG Export Plug-In . SVG Version: 6.00 Build 0)  -->
<svg version="1.1" id="Layer_1" xmlns="http://www.w3.org/2000/svg" xmlns:xlink="http://www.w3.org/1999/xlink" x="0px" y="0px"
	 viewBox="0 0 30 30" enable-background="new 0 0 30 30" xml:space="preserve">
<path fill="#FFFFFF" d="M10.2,24c2,1.2,4.3,2,6.8,2c7.2,0,13-5.8,13-13S24.2,0,17,0S4,5.8,4,13c0,2.5,0.7,4.8,2,6.8l-1.9,1.9
	l-3.2,3.2c-1.2,1.2-1.2,3.1,0,4.2c1.2,1.2,3.1,1.2,4.2,0L8,26.2L10.2,24z M8.5,13c0-4.7,3.8-8.5,8.5-8.5s8.5,3.8,8.5,8.5
	s-3.8,8.5-8.5,8.5S8.5,17.7,8.5,13z"/>
</svg>
