<?xml version="1.0" encoding="utf-8"?>
<!-- Generator: Adobe Illustrator 18.1.1, SVG Export Plug-In . SVG Version: 6.00 Build 0)  -->
<svg version="1.1" id="Layer_1" xmlns="http://www.w3.org/2000/svg" xmlns:xlink="http://www.w3.org/1999/xlink" x="0px" y="0px"
	 viewBox="0 0 75 75" enable-background="new 0 0 75 75" xml:space="preserve">
<g>
	<rect x="2" y="2" fill="#86786F" width="71" height="71"/>
	<linearGradient id="SVGID_1_" gradientUnits="userSpaceOnUse" x1="0" y1="37.5" x2="75.0006" y2="37.5">
		<stop  offset="0" style="stop-color:#C4BCB7"/>
		<stop  offset="9.890110e-02" style="stop-color:#A99E98"/>
		<stop  offset="0.3077" style="stop-color:#BFB6B1"/>
		<stop  offset="0.4341" style="stop-color:#A39791"/>
		<stop  offset="0.5495" style="stop-color:#E2DDDA"/>
		<stop  offset="0.6758" style="stop-color:#988C85"/>
		<stop  offset="0.8352" style="stop-color:#F5F2F0"/>
		<stop  offset="1" style="stop-color:#A59A94"/>
	</linearGradient>
	<path fill="url(#SVGID_1_)" d="M73,75H2c-1.1,0-2-0.9-2-2V2c0-1.1,0.9-2,2-2h71c1.1,0,2,0.9,2,2v71C75,74.1,74.1,75,73,75z M4,71
		h67V4H4V71z"/>
</g>
<g>
	<path fill="#FFFFFF" d="M73,73.6H1.7c-0.2,0-0.4-0.2-0.4-0.4V2c0-0.2,0.2-0.4,0.4-0.4H73c0.2,0,0.4,0.2,0.4,0.4v71.3
		C73.4,73.5,73.2,73.6,73,73.6z M2.1,72.9h70.6V2.3H2.1V72.9z"/>
</g>
<g>
	<g>
		<path fill="#FFFFFF" d="M61.2,13.8c-0.3,0.1-4.8,4.2-13.1,3.8c-0.4,0-2.3,0-4.2-0.3c0,0,0,0-0.1,0c-0.6,0-5.9-0.6-4.1-3.9
			c0,0-5.7,2.2-1.1,5.4c4.6,3.2,10.5,3,12,2.9c0,0.1-6,6.6-6.9,7.9c-2.2,2.7-7,9.9-7.1,10.2c-0.9,0.1-6.4,0.4-3.8-3.4
			c0,0-9,4,1.1,8.3c-1.1,1.6-5.7,8.1-7.8,10.2c-2.1,2-6.2,4.4-11.1-0.1c-1.4-1.7-2.8-4.4-0.7-6.5c0,0-5.3,1.6-4.3,6.3
			c1,4.7,8.2,9.2,15.3,6.6c7.1-2.6,15.2-16.7,15.2-16.7c0-0.1,9.3-1.1,9.3-1.1c-0.1,0.1-1.9,12.9,1.6,16.3
			c5.7,5.8,13.1-1.4,12.6-3.8c-2.2,2.6-6.5,3.3-8.4,0.3c-2-4.1-0.1-13.4-0.1-13.3c0,0,0,0,0-0.1c0.4-0.2,6.1-2.3,4.6,2.2
			c0,0,7.5-6.4-3.5-7.3c0.6-2.6,4.1-16.7,8-22.3C65.6,14.8,61.8,14.3,61.2,13.8z M50.9,38.1c-0.1,0-7.6,1-7.6,1
			c3-6.3,11.5-15.2,11.6-15.2c0.1,0,0.2,0,0.2,0C55,24.1,51.9,33.2,50.9,38.1z"/>
	</g>
</g>
</svg>
