<?xml version="1.0" encoding="utf-8"?>
<!-- Generator: Adobe Illustrator 18.1.1, SVG Export Plug-In . SVG Version: 6.00 Build 0)  -->
<svg version="1.1" id="Layer_1" xmlns="http://www.w3.org/2000/svg" xmlns:xlink="http://www.w3.org/1999/xlink" x="0px" y="0px"
	 viewBox="0 0 323 55" enable-background="new 0 0 323 55" xml:space="preserve">
<g>
	<path d="M95.1,55C95,55,95,55,95.1,55c-1.8,0-3.2-1.2-3.7-2.8l-9.5-31.2c-0.6-2.1,0.5-4.4,2.6-5c2.1-0.7,4.2,0.5,4.9,2.6l6,19.9
		l7-19.9c0.6-1.6,2-2.6,3.7-2.6c0,0,0,0,0.1,0c1.7,0,3.1,1.1,3.6,2.7l6.3,19.7l6.5-19.9c0.7-2.1,2.9-3.2,4.9-2.5
		c2,0.7,3.1,3,2.4,5.1l-10.2,31.2c-0.5,1.6-2,2.7-3.7,2.7c0,0,0,0,0,0c-1.7,0-3.2-1.1-3.7-2.7l-6.5-20.1l-7.1,20.2
		C98.2,53.9,96.7,55,95.1,55z"/>
</g>
<g opacity="0.16">
	<path d="M54.3,54.8C54.2,54.8,54.2,54.8,54.3,54.8c-1.8,0-3.2-1.2-3.7-2.8l-9.5-31.2c-0.6-2.1,0.5-4.4,2.6-5
		c2.1-0.7,4.2,0.5,4.9,2.6l6,19.9l7-19.9c0.6-1.6,2-2.6,3.7-2.6c0,0,0,0,0.1,0c1.7,0,3.1,1.1,3.6,2.7l6.3,19.7l6.5-19.9
		c0.7-2.1,2.9-3.2,4.9-2.5c2,0.7,3.1,3,2.4,5.1L78.9,52c-0.5,1.6-2,2.7-3.7,2.7c0,0,0,0,0,0c-1.7,0-3.2-1.1-3.7-2.7L65,31.9
		l-7.1,20.2C57.4,53.7,55.9,54.8,54.3,54.8z"/>
</g>
<g opacity="8.000000e-02">
	<path d="M13.3,54.8C13.3,54.8,13.3,54.8,13.3,54.8c-1.8,0-3.2-1.2-3.7-2.8L0.2,20.7c-0.6-2.1,0.5-4.4,2.6-5C4.8,15,7,16.2,7.6,18.3
		l6,19.9l7-19.9c0.6-1.6,2-2.6,3.7-2.6c0,0,0,0,0.1,0c1.7,0,3.1,1.1,3.6,2.7l6.3,19.7l6.5-19.9c0.7-2.1,2.9-3.2,4.9-2.5
		c2,0.7,3.1,3,2.4,5.1L38,52c-0.5,1.6-2,2.7-3.7,2.7c0,0,0,0,0,0c-1.7,0-3.2-1.1-3.7-2.7l-6.5-20.1L17,52.1
		C16.4,53.7,15,54.8,13.3,54.8z"/>
</g>
<g>
	<path d="M147.9,54.9c-11,0-19.9-8.9-19.9-19.9s8.9-19.9,19.9-19.9c11,0,19.9,8.9,19.9,19.9c0,2.2-1.8,3.9-3.9,3.9h-27.3
		c1.6,4.7,6.1,8.1,11.3,8.1c2.6,0,5-0.8,7.1-2.3c1.8-1.3,4.2-0.9,5.5,0.9c1.3,1.8,0.9,4.2-0.9,5.5C156.2,53.5,152.1,54.9,147.9,54.9
		z M136.5,31h22.7c-1.6-4.7-6.1-8.1-11.3-8.1C142.6,23,138.2,26.4,136.5,31z"/>
</g>
<g>
	<path fill="#990000" d="M303.1,54.9c-11,0-19.9-8.9-19.9-19.9s8.9-19.9,19.9-19.9c11,0,19.9,8.9,19.9,19.9c0,2.2-1.8,3.9-3.9,3.9
		h-27.3c1.6,4.7,6.1,8.1,11.3,8.1c2.6,0,5-0.8,7.1-2.3c1.8-1.3,4.2-0.9,5.5,0.9c1.3,1.8,0.9,4.2-0.9,5.5
		C311.4,53.5,307.4,54.9,303.1,54.9z M291.8,31h22.7c-1.6-4.7-6.1-8.1-11.3-8.1C297.9,23,293.4,26.4,291.8,31z"/>
</g>
<path d="M189.1,15.4c-4.6,0-8.9,1.5-12.3,4.1V3.9c0-2.2-1.8-3.9-3.9-3.9c-2.2,0-3.9,1.8-3.9,3.9v32.4c0,0.3,0,0.6,0.1,0.9
	c1,10,9.6,17.8,20,17.8c11.1,0,20.1-8.9,20.1-19.8C209.3,24.3,200.2,15.4,189.1,15.4z M189.1,47.1c-6.8,0-12.3-5.4-12.3-11.9
	c0-6.6,5.5-11.9,12.3-11.9c6.8,0,12.3,5.4,12.3,11.9C201.4,41.8,195.9,47.1,189.1,47.1z"/>
<path fill="#990000" d="M241.2,35.2c0,10.9,9,19.8,20.1,19.8c10.4,0,19-7.8,20-17.8c0.1-0.3,0.1-0.6,0.1-0.9V3.9
	c0-2.2-1.8-3.9-3.9-3.9c-2.2,0-3.9,1.8-3.9,3.9v15.6c-3.4-2.6-7.7-4.1-12.3-4.1C250.3,15.4,241.2,24.3,241.2,35.2z M249.1,35.2
	c0-6.6,5.5-11.9,12.3-11.9c6.8,0,12.3,5.4,12.3,11.9c0,6.6-5.5,11.9-12.3,11.9C254.6,47.1,249.1,41.8,249.1,35.2z"/>
<g>
	<g>
		<path fill="#990000" d="M235.6,54.8c-2.2,0-3.9-1.8-3.9-3.9V18.4c0-2.2,1.8-3.9,3.9-3.9s3.9,1.8,3.9,3.9v32.4
			C239.5,53,237.7,54.8,235.6,54.8z"/>
	</g>
	<circle fill="#990000" cx="235.6" cy="8.3" r="3.9"/>
</g>
<path fill="#990000" d="M226.3,54.7c2.2,0,3.9-1.5,3.9-3.7s-1.8-3.9-3.9-3.9c0,0-2.1,0.3-4.6-0.7c-2-0.8-2.1-4.8-2.1-4.8V23h5.4
	c2.2,0,3.9-1.8,3.9-3.9s-1.8-3.9-3.9-3.9h-5.2V5.5c0-2.2-1.8-3.9-3.9-3.9c-2.2,0-3.9,1.8-3.9,3.9v9.6H209c-2.2,0-3.9,1.8-3.9,3.9
	s1.8,3.9,3.9,3.9h3.1l0,19.6c0,1.6,0.2,3.1,0.6,4.4c0,0,1.2,3.4,3.6,5.3C218.8,54.3,220.4,54.8,226.3,54.7z"/>
</svg>
