<svg id="Layer_1" data-name="Layer 1" xmlns="http://www.w3.org/2000/svg" viewBox="0 0 327 82"><defs><style>.cls-1{opacity:0.16;}.cls-2{opacity:0.08;}.cls-3{fill:#900;}</style></defs><title>wwWebTide-with-ua-wordmark</title><path d="M94.18,54.46H94.09a3.88,3.88,0,0,1-3.59-2.79L81.14,20.74a4,4,0,0,1,2.53-5,3.83,3.83,0,0,1,4.83,2.61l6,19.69,6.93-19.67A3.86,3.86,0,0,1,105,15.75h0.05a3.87,3.87,0,0,1,3.61,2.72L115,37.95l6.42-19.67a3.83,3.83,0,0,1,4.89-2.5,4,4,0,0,1,2.42,5.05l-10.1,30.93a3.87,3.87,0,0,1-3.65,2.71h0a3.87,3.87,0,0,1-3.65-2.72l-6.42-19.9-7.05,20A3.86,3.86,0,0,1,94.18,54.46Z" transform="translate(0)"/><g class="cls-1"><path d="M53.76,54.24H53.67a3.88,3.88,0,0,1-3.59-2.79L40.71,20.52a4,4,0,0,1,2.53-5,3.83,3.83,0,0,1,4.83,2.61l6,19.69L61,18.16a3.86,3.86,0,0,1,3.62-2.62h0.05a3.87,3.87,0,0,1,3.61,2.72l6.28,19.47L81,18.06a3.83,3.83,0,0,1,4.89-2.5,4,4,0,0,1,2.42,5.05L78.16,51.53a3.87,3.87,0,0,1-3.65,2.71h0a3.87,3.87,0,0,1-3.65-2.72l-6.42-19.9-7.05,20A3.86,3.86,0,0,1,53.76,54.24Z" transform="translate(0)"/></g><g class="cls-2"><path d="M13.22,54.24H13.13a3.88,3.88,0,0,1-3.59-2.79L0.18,20.52a4,4,0,0,1,2.53-5,3.83,3.83,0,0,1,4.83,2.61l6,19.69,6.93-19.67a3.86,3.86,0,0,1,3.62-2.62h0.05a3.87,3.87,0,0,1,3.61,2.72L34,37.73l6.42-19.67a3.83,3.83,0,0,1,4.89-2.5,4,4,0,0,1,2.42,5.05L37.63,51.53A3.87,3.87,0,0,1,34,54.24h0a3.87,3.87,0,0,1-3.65-2.72L23.9,31.62l-7.05,20A3.86,3.86,0,0,1,13.22,54.24Z" transform="translate(0)"/></g><path d="M146.51,54.35a19.7,19.7,0,1,1,19.7-19.7,3.9,3.9,0,0,1-3.9,3.9h-27a11.9,11.9,0,0,0,18.25,5.71,3.9,3.9,0,0,1,4.6,6.3A19.55,19.55,0,0,1,146.51,54.35Zm-11.24-23.6h22.48A11.9,11.9,0,0,0,135.27,30.76Z" transform="translate(0)"/><path class="cls-3" d="M300.3,54.35A19.7,19.7,0,1,1,320,34.66a3.9,3.9,0,0,1-3.9,3.9h-27a11.9,11.9,0,0,0,18.25,5.71,3.9,3.9,0,0,1,4.6,6.3A19.55,19.55,0,0,1,300.3,54.35Zm-11.24-23.6h22.48A11.9,11.9,0,0,0,289.06,30.76Z" transform="translate(0)"/><path d="M187.37,15.29a20.06,20.06,0,0,0-12.16,4.08V3.89a3.89,3.89,0,1,0-7.78,0V36a3.89,3.89,0,0,0,.1.87,20,20,0,0,0,39.79-2A19.8,19.8,0,0,0,187.37,15.29Zm0,31.42a12,12,0,0,1-12.16-11.82,12.16,12.16,0,0,1,24.32,0A12,12,0,0,1,187.37,46.71Z" transform="translate(0)"/><path class="cls-3" d="M239,34.89a20,20,0,0,0,39.79,2,3.89,3.89,0,0,0,.1-0.87V3.89a3.89,3.89,0,1,0-7.78,0V19.37a20.06,20.06,0,0,0-12.16-4.08A19.8,19.8,0,0,0,239,34.89Zm7.78,0a12.16,12.16,0,0,1,24.32,0A12.16,12.16,0,0,1,246.78,34.89Z" transform="translate(0)"/><path class="cls-3" d="M233.38,54.24a3.9,3.9,0,0,1-3.9-3.9V18.21a3.9,3.9,0,1,1,7.79,0V50.35A3.9,3.9,0,0,1,233.38,54.24Z" transform="translate(0)"/><circle class="cls-3" cx="233.38" cy="8.19" r="3.89"/><path class="cls-3" d="M224.15,54.23a3.69,3.69,0,0,0,3.9-3.64,3.9,3.9,0,0,0-3.9-3.9,10.58,10.58,0,0,1-4.57-.68c-2-.76-2.09-4.72-2.09-4.72V22.75h5.31a3.9,3.9,0,0,0,0-7.79h-5.19V5.42a3.9,3.9,0,1,0-7.79,0V15H207a3.9,3.9,0,0,0,0,7.79h3.06V42.17a13.94,13.94,0,0,0,.6,4.41,13.23,13.23,0,0,0,3.58,5.23C216.77,53.75,218.4,54.33,224.15,54.23Z" transform="translate(0)"/><path d="M9.41,81.6A6.34,6.34,0,0,0,10,78.33V66.93H6.64a2.68,2.68,0,0,0-1.77.55l0.5-1.8H17.92c-0.42,1.07-1.95,1.25-3,1.25H12.2v11.4a6.34,6.34,0,0,0,.55,3.27H9.41Z" transform="translate(0)"/><path d="M29.64,69a6.64,6.64,0,0,0-.57-3.27h3.39A6.63,6.63,0,0,0,31.89,69v9.38a6.63,6.63,0,0,0,.57,3.27H29.07a6.64,6.64,0,0,0,.57-3.27V73.52H22.26v4.82a6.64,6.64,0,0,0,.57,3.27H19.44A6.63,6.63,0,0,0,20,78.33V69a6.63,6.63,0,0,0-.57-3.27h3.39A6.64,6.64,0,0,0,22.26,69v3.57h7.38V69Z" transform="translate(0)"/><path d="M38,80.6h2.87a6.4,6.4,0,0,0,4.32-1.42l-0.45,2.3c-0.67,0-1.5.12-2.4,0.12H35.08a6.36,6.36,0,0,0,.62-3.27V69a6.34,6.34,0,0,0-.55-3.27h8.71L44,67.6a5.68,5.68,0,0,0-3.69-.92H38v6c1.92,0,3.94,0,5.86-.17-0.87,1.42-3.69,1.42-5.24,1.42H38V80.6Z" transform="translate(0)"/><path d="M66.8,65.68A6.49,6.49,0,0,0,66.25,69v9.38a6.21,6.21,0,0,0,.55,3.24l-3,.15,0.1-1.65A0.1,0.1,0,0,0,63.8,80a2.11,2.11,0,0,0-.3.27A7.18,7.18,0,0,1,58.69,82c-2.89,0-4.82-1.17-4.89-4.24V69a6.48,6.48,0,0,0-.55-3.29h3.34A6.49,6.49,0,0,0,56,69v7.29c0.07,2.67,1.17,4.29,4,4.29s3.79-1.82,3.87-4.79c0-.95.1-1.92,0.1-2.87V69a6.48,6.48,0,0,0-.55-3.29H66.8Z" transform="translate(0)"/><path d="M69.12,81.6c0.87-2,.87-5.09.87-7.29V69c0-1.22-.05-2.57-0.8-3.32h2.52a1,1,0,0,1,1,.4c0.52,0.7,2.12,3.37,2.89,4.47l5,7a1.42,1.42,0,0,0,.52.6c0.17,0,.17-0.25.17-0.47V68.88a6.34,6.34,0,0,0-.6-3.19h2.59a8,8,0,0,0-.75,3.72v10c0,0.82,0,1.57.05,2.32H80.8l-9.13-13a0.48,0.48,0,0,0-.27-0.27c-0.1,0-.15.15-0.15,0.37v6.41c0,2,0,4.52.75,6.39H69.12Z" transform="translate(0)"/><path d="M86.65,69a6.34,6.34,0,0,0-.55-3.27h3.34A6.35,6.35,0,0,0,88.89,69v9.38a6.35,6.35,0,0,0,.55,3.27H86.1a6.34,6.34,0,0,0,.55-3.27V69Z" transform="translate(0)"/><path d="M96.25,81.7l-0.37-1.27c-1.17-4-2.92-10.13-4.69-13.9l-0.4-.85H93a1,1,0,0,1,.75.95c1.3,3.87,2.74,7.71,3.79,11.65a0.85,0.85,0,0,0,.4.72,1.23,1.23,0,0,0,.42-0.77c0.72-2.2,3.77-9.31,3.77-11.65a3.37,3.37,0,0,0-.12-0.9h3.09l-0.45.8a100.71,100.71,0,0,0-6,13.87l-0.5,1.35H96.25Z" transform="translate(0)"/><path d="M109,80.6h2.87a6.4,6.4,0,0,0,4.32-1.42l-0.45,2.3c-0.67,0-1.5.12-2.4,0.12h-7.21a6.36,6.36,0,0,0,.62-3.27V69a6.35,6.35,0,0,0-.55-3.27h8.71L115,67.6a5.68,5.68,0,0,0-3.69-.92H109v6c1.92,0,3.94,0,5.86-.17-0.87,1.42-3.69,1.42-5.24,1.42H109V80.6Z" transform="translate(0)"/><path d="M128.74,79.28a13.74,13.74,0,0,0,2.1,2.32h-2a2.37,2.37,0,0,1-2.1-1.37l-3-4.34c-1-1.5-1.22-1.92-2.67-2v4.49a6.35,6.35,0,0,0,.55,3.27h-3.47a5.94,5.94,0,0,0,.67-3.42V69a6.35,6.35,0,0,0-.55-3.27c2.1,0,4.09-.25,6-0.25,2.55,0,3.87,1.4,3.87,3.34,0,2.3-1.9,3.79-3.69,4.52ZM121,72.87a8.41,8.41,0,0,0,1.12.07c2.42,0,3.74-1.3,3.74-3.67s-1.42-2.79-3.64-2.84H121c0,0.37-.05.8-0.05,1.2v5.24Z" transform="translate(0)"/><path d="M130.91,78.48A5,5,0,0,0,135.35,81a3,3,0,0,0,3.32-3.12c0-4.19-7.14-3.67-7.14-8.28,0-2.89,2.37-4.32,5-4.32,1.3,0,2.57.15,3.84,0.15v2.32a3.9,3.9,0,0,0-3.47-1.47c-1.75,0-3,.87-3,2.74,0,3.84,7.14,3.37,7.14,8.13,0,3.09-3,4.84-5.81,4.84a13.41,13.41,0,0,1-4.29-.87V78.48Z" transform="translate(0)"/><path d="M144.38,69a6.34,6.34,0,0,0-.55-3.27h3.34a6.35,6.35,0,0,0-.55,3.27v9.38a6.35,6.35,0,0,0,.55,3.27h-3.34a6.34,6.34,0,0,0,.55-3.27V69Z" transform="translate(0)"/><path d="M153.46,81.6a6.34,6.34,0,0,0,.55-3.27V66.93h-3.32a2.69,2.69,0,0,0-1.77.55l0.5-1.8H162c-0.42,1.07-1.95,1.25-3,1.25h-2.74v11.4a6.34,6.34,0,0,0,.55,3.27h-3.34Z" transform="translate(0)"/><path d="M166.24,81.6a6.35,6.35,0,0,0,.55-3.27V76.06c0-1.75-.75-3.42-1.75-5.46a17.94,17.94,0,0,0-3.29-4.92h2.15a1.42,1.42,0,0,1,1.52.95,27.35,27.35,0,0,1,2.6,6.16,0.91,0.91,0,0,0,.4.75,2,2,0,0,0,.57-0.87l1.7-3a7.5,7.5,0,0,0,1.12-3,1.39,1.39,0,0,0-.37-1h3.14l-2.84,4.42C170,72.77,169,74,169,77.28v1a6.34,6.34,0,0,0,.55,3.27h-3.34Z" transform="translate(0)"/><path d="M188.62,82c-5.24,0-7.53-3.59-7.53-8,0-4.74,2.74-8.68,7.93-8.68s7.53,3.59,7.53,8c0,4.74-2.74,8.68-7.93,8.68m0.2-15.62c-3.59,0-5.14,3.29-5.14,6.89,0,3.29,1.12,7.63,5.14,7.63,3.59,0,5.14-3.29,5.14-6.89,0-3.29-1.12-7.63-5.14-7.63" transform="translate(0)"/><path d="M201.39,78.33a6.34,6.34,0,0,0,.55,3.27H198.6a6.35,6.35,0,0,0,.55-3.27V69a6.34,6.34,0,0,0-.5-3.27h7.73c0.62,0,1.15,0,1.15.22v1.95H207.4c-0.7-1.15-2.27-1.17-3.44-1.17h-2.57v6.41c1.92,0,3.94,0,5.86-.17-0.87,1.42-3.69,1.42-5.24,1.42h-0.62v4Z" transform="translate(0)"/><path d="M227.29,81.6l-2.72-7H219c-1.07,2.17-2.2,4.62-2.2,6a6.21,6.21,0,0,0,.07.95h-3.12l0.55-.7c1.42-1.8,6.56-12.5,6.56-14.55l0-.67h2.94c1.6,5,3.19,10.38,5.69,15L230,81.6h-2.69ZM222.4,68.28a0.78,0.78,0,0,0-.42-0.6,0.88,0.88,0,0,0-.42.6l-2.17,5.34h4.77Z" transform="translate(0)"/><path d="M232,69a6.34,6.34,0,0,0-.55-3.27h3.34a6.34,6.34,0,0,0-.55,3.27V80.6h1.9a5,5,0,0,0,3.92-1.42l-0.47,2.35c-0.5,0-1,.07-1.52.07h-6.91c0.75-1,.85-4.49.85-5.66V69Z" transform="translate(0)"/><path d="M253.8,81.6l-2.72-7h-5.61c-1.07,2.17-2.2,4.62-2.2,6a6.12,6.12,0,0,0,.07.95h-3.12l0.55-.7c1.42-1.8,6.56-12.5,6.56-14.55l0-.67h2.94c1.6,5,3.19,10.38,5.69,15l0.5,0.92H253.8Zm-4.89-13.32a0.78,0.78,0,0,0-.42-0.6,0.88,0.88,0,0,0-.42.6l-2.17,5.34h4.77Z" transform="translate(0)"/><path d="M258.14,69a6.34,6.34,0,0,0-.55-3.27c2.2,0,4.44-.25,6.64-0.25,1.95,0,3.72.85,3.72,3s-1.72,3.22-3.49,4v0c2.32,0.52,4.32,1.45,4.32,4.14,0,3.94-3,5.09-6.39,5.09-1.7,0-3.37-.1-5.07-0.1,0.82-1.77.82-4.34,0.82-6.26V69Zm2.25,3.39h0.67c2.2,0,4.44-.7,4.44-3.34,0-2.25-1.52-2.57-3.57-2.57-0.47,0-1,0-1.55.1v5.81Zm0,4.84c0,2.89,0,3.52,1.67,3.52,2.55,0,4.12-1,4.12-3.67,0-3.42-2.49-3.79-5.36-3.79h-0.42v3.94Z" transform="translate(0)"/><path d="M282.22,81.6l-2.72-7h-5.61c-1.07,2.17-2.2,4.62-2.2,6a6.11,6.11,0,0,0,.08.95h-3.12l0.55-.7c1.42-1.8,6.56-12.5,6.56-14.55l0-.67h2.94c1.6,5,3.19,10.38,5.69,15l0.5,0.92h-2.7Zm-4.89-13.32a0.78,0.78,0,0,0-.42-0.6,0.88,0.88,0,0,0-.42.6l-2.17,5.34h4.77Z" transform="translate(0)"/><path d="M302.5,65.68a7.1,7.1,0,0,0-.5,3.54,85.34,85.34,0,0,0,.2,9.11A8.6,8.6,0,0,0,303,81.6h-3.67a14.78,14.78,0,0,0,.45-4.49V68.83c0-.25,0-0.55-0.18-0.55a0.43,0.43,0,0,0-.32.37l-5.59,13.2L288.93,69.6a2.35,2.35,0,0,0-.67-1.32c-0.22,0-.22.45-0.22,0.82l0,8.11c0,1.95,0,3.57.55,4.39h-3l0.23-.32c0.92-1.32,1-5.26,1-8V67.08a1.29,1.29,0,0,0-.62-1.4h3.09a0.72,0.72,0,0,1,.77.37l3.69,10.88a1.11,1.11,0,0,0,.4.8,0.71,0.71,0,0,0,.45-0.6l4.32-10.4a1.22,1.22,0,0,1,1-1h2.55Z" transform="translate(0)"/><path d="M317.31,81.6l-2.72-7H309c-1.07,2.17-2.2,4.62-2.2,6a6.11,6.11,0,0,0,.08.95h-3.12l0.55-.7c1.42-1.8,6.56-12.5,6.56-14.55l0-.67h2.94c1.6,5,3.19,10.38,5.69,15L320,81.6h-2.69Zm-4.89-13.32a0.78,0.78,0,0,0-.42-0.6,0.87,0.87,0,0,0-.42.6l-2.17,5.34h4.77Z" transform="translate(0)"/><path d="M320.8,67.64a3,3,0,0,1,.71-1,3.23,3.23,0,0,1,1-.63A3.47,3.47,0,0,1,325,66a3.22,3.22,0,0,1,1,.63,3,3,0,0,1,.71,1A3.11,3.11,0,0,1,325,71.87a3.55,3.55,0,0,1-2.45,0,3.11,3.11,0,0,1-1-.63,3.08,3.08,0,0,1-.71-1,3.32,3.32,0,0,1,0-2.6m0.78,2.29a2.47,2.47,0,0,0,.51.79,2.27,2.27,0,0,0,.75.52,2.4,2.4,0,0,0,1.85,0,2.27,2.27,0,0,0,.75-0.52,2.63,2.63,0,0,0,.51-2.77,2.49,2.49,0,0,0-.51-0.78,2.3,2.3,0,0,0-.75-0.51,2.4,2.4,0,0,0-1.85,0,2.3,2.3,0,0,0-.75.51,2.43,2.43,0,0,0-.51.78,2.75,2.75,0,0,0,0,2m2.26-2.76a1.86,1.86,0,0,1,1,.24,0.89,0.89,0,0,1,.36.81,1.08,1.08,0,0,1-.07.42,0.75,0.75,0,0,1-.2.28,0.91,0.91,0,0,1-.29.17,1.5,1.5,0,0,1-.36.08l0.94,1.54h-0.73l-0.86-1.51h-0.44V70.7h-0.7V67.17h1.33Zm0,1.47a1.26,1.26,0,0,0,.5-0.08,0.39,0.39,0,0,0,.19-0.4,0.36,0.36,0,0,0-.07-0.23,0.45,0.45,0,0,0-.17-0.13,0.88,0.88,0,0,0-.24-0.06l-0.25,0h-0.59v0.93h0.62Z" transform="translate(0)"/></svg>